<svg width="49" height="53" viewBox="0 0 49 53" fill="none" xmlns="http://www.w3.org/2000/svg">
<path d="M29.9688 8.16973C30.9933 8.07999 28.6302 7.33964 28.5554 7.39947C27.5608 7.07042 26.4765 7.08538 25.437 7.13773C20.5462 7.37703 14.9226 8.02764 10.2486 11.0339C3.87716 15.1395 0.601685 23.4553 2.47125 30.8064C3.43595 34.5979 5.40273 39.3541 7.86308 42.9736C10.5328 46.8922 15.8648 52.5158 22.2662 50.9155C23.5525 50.5939 25.8483 49.1955 27.8824 49.5021C29.1911 49.6965 31.1279 50.7136 32.5339 50.6836C37.649 50.564 39.9897 47.0417 41.2086 45.6882C47.4305 38.8381 48.3429 27.7777 46.7725 20.6809C46.0321 17.3156 43.7961 14.0402 41.6499 12.6492L42.45 13.2624M19.8956 1.94781C20.9799 3.48086 23.373 18.7216 23.3879 18.6468C23.53 17.5101 24.2554 14.9974 24.9659 13.6064C24.9808 13.5915 24.9958 13.569 25.0033 13.5466L25.3024 13.1054C25.7062 12.5296 26.1549 11.9462 26.626 11.4003C27.5683 10.3085 28.6152 9.29895 29.7594 8.41651C30.8961 7.53408 32.1151 6.77129 33.4088 6.20295C34.0519 5.91877 34.7175 5.68695 35.3831 5.52242C35.5476 5.47755 37.2452 5.23825 37.4172 5.23825C38.1052 5.21581 38.8006 5.25321 39.4886 5.3579C40.1766 5.4626 40.8646 5.61964 41.5452 5.82155C42.2257 6.02347 42.8838 6.27025 43.5419 6.55442C44.1999 6.8386 44.8356 7.15268 45.4563 7.50416C46.077 7.85564 46.6752 8.24451 47.2585 8.64834C47.2585 8.64834 47.2586 8.64834 47.266 8.65582C46.765 8.76799 46.2714 8.91756 45.7928 9.09703C45.202 9.3139 44.6187 9.56816 44.0653 9.86729C43.5119 10.1664 42.9735 10.5029 42.465 10.8769L42.0911 11.161L41.0366 12.1033C40.5954 12.5445 36.4973 16.0817 33.1246 17.2857C27.6954 19.2151 24.6443 18.2429 23.3954 18.6318" stroke="#016E95" stroke-width="3" stroke-linecap="round" stroke-linejoin="round"/>
</svg>
