<svg width="51" height="52" viewBox="0 0 51 52" fill="none" xmlns="http://www.w3.org/2000/svg">
<path d="M14.7076 9.56455C13.1298 8.46159 13.0056 5.97081 14.1232 4.40038C15.2408 2.82994 17.2495 2.09951 19.1705 2.01185C20.8651 1.93881 22.7715 2.4209 23.6481 3.87446C24.2178 4.81672 24.247 5.98542 24.2543 7.08838C24.342 19.8418 24.1886 32.5952 23.7942 45.3486C23.7576 46.4807 23.6992 47.6859 23.0418 48.6063C22.0776 49.9576 20.0032 50.2059 18.5569 49.3806C17.1107 48.5552 16.2853 46.8971 16.1246 45.239C15.9639 43.5809 16.3729 41.9228 16.9281 40.3524M12.2971 5.99272C9.87938 6.03655 7.52007 7.38055 6.24911 9.44038C4.97816 11.5002 4.82477 14.2028 5.86198 16.3941C4.58372 17.0734 3.82407 18.4759 3.5392 19.8929C2.94025 22.895 4.58372 26.3792 7.52007 27.263C8.94442 27.6939 10.6609 27.4164 11.6251 26.2769M5.00007 26.2696C3.91172 26.1454 3.23242 27.3945 2.93294 28.4463C2.28285 30.7179 1.94685 33.2233 2.8672 35.4073C3.78025 37.5913 6.29294 39.2348 8.54268 38.4825C7.42512 39.0595 6.82616 40.3816 6.88459 41.6379C6.94303 42.8943 7.58581 44.063 8.43312 44.9833C9.7552 46.415 11.6105 47.3353 13.5535 47.5106C14.1889 47.5691 14.8609 47.5398 15.4234 47.2331C15.9858 46.9263 16.3876 46.2689 16.2342 45.648M37.687 9.71064C39.294 8.6442 39.4839 6.16072 38.4029 4.56107C37.3291 2.96142 35.3423 2.17985 33.414 2.04107C31.7194 1.9169 29.8056 2.35516 28.8926 3.78681C28.3009 4.71446 28.2425 5.88316 28.206 6.98611C27.7823 19.7322 27.5997 32.4856 27.6655 45.239C27.6655 46.3712 27.702 47.5764 28.3302 48.5113C29.2578 49.8919 31.3322 50.1913 32.7931 49.4025C34.2613 48.6136 35.1305 46.9774 35.335 45.3266C35.5396 43.6759 35.1743 42.0032 34.663 40.4254M40.1851 6.21186C42.6029 6.32142 44.9256 7.72385 46.1455 9.8202C47.3653 11.9092 47.4456 14.6192 46.35 16.7812C47.6063 17.4971 48.3368 18.9141 48.5778 20.3385C49.0964 23.3552 47.358 26.7955 44.407 27.599C42.9681 27.9861 41.2589 27.672 40.3312 26.5106M46.9489 26.6713C48.0373 26.5764 48.6874 27.8473 48.9576 28.9065C49.5493 31.2 49.8122 33.7127 48.8408 35.8675C47.8693 38.0223 45.3128 39.6 43.0923 38.7966C44.1879 39.4028 44.7649 40.7395 44.67 41.9959C44.575 43.2449 43.9103 44.399 43.0338 45.3047C41.6752 46.6999 39.7907 47.5764 37.8477 47.7005C37.2123 47.7444 36.5402 47.7005 35.9851 47.3719C35.4373 47.0505 35.0429 46.3785 35.2182 45.7649" stroke="#016E95" stroke-width="3" stroke-miterlimit="10"/>
</svg>
