<svg width="66" height="72" viewBox="0 0 66 72" fill="none" xmlns="http://www.w3.org/2000/svg">
<g clip-path="url(#clip0_530_1255)">
<path d="M58.7335 11.1275H56.6367C56.4559 11.1275 56.2812 11.1697 56.1245 11.2361V4.22181C56.1245 1.89378 54.2326 0 51.9069 0C49.5812 0 47.6893 1.89378 47.6893 4.22181V11.1516C47.6109 11.1396 47.5326 11.1275 47.4543 11.1275H18.5333C18.4249 11.1275 18.3164 11.1456 18.214 11.1697V4.22181C18.214 1.89378 16.3221 0 13.9964 0C11.6706 0 9.77874 1.89378 9.77874 4.22181V11.2059C9.64618 11.1576 9.50158 11.1275 9.35095 11.1275H7.25418C3.24742 11.1275 -0.012207 14.3904 -0.012207 18.4011V64.7264C-0.012207 68.7371 3.24742 72 7.25418 72H58.7214C62.7282 72 65.9878 68.7371 65.9878 64.7264V18.4011C65.9878 14.3904 62.7282 11.1275 58.7214 11.1275H58.7335ZM50.0572 4.22181C50.0572 3.19652 50.8886 2.36422 51.9129 2.36422C52.9372 2.36422 53.7687 3.19652 53.7687 4.22181V16.9234C53.7687 17.9487 52.9372 18.781 51.9129 18.781C50.8886 18.781 50.0572 17.9487 50.0572 16.9234V4.22181ZM12.1466 4.22181C12.1466 3.19652 12.9781 2.36422 14.0024 2.36422C15.0267 2.36422 15.8582 3.19652 15.8582 4.22181V16.9234C15.8582 17.9487 15.0267 18.781 14.0024 18.781C12.9781 18.781 12.1466 17.9487 12.1466 16.9234V4.22181ZM63.4391 64.7264C63.4391 67.3198 61.3303 69.4307 58.7335 69.4307H7.26623C4.6754 69.4307 2.56055 67.3198 2.56055 64.7264V18.4011C2.56055 15.8077 4.66937 13.6907 7.26623 13.6907H8.07963V16.1997C8.07963 19.4384 10.7126 22.074 13.9482 22.074C17.1837 22.074 19.8167 19.4384 19.8167 16.1997V13.6907H46.183V16.1997C46.183 19.4384 48.816 22.074 52.0515 22.074C55.287 22.074 57.92 19.4384 57.92 16.1997V13.6907H58.7335C61.3243 13.6907 63.4391 15.8016 63.4391 18.4011V64.7264Z" fill="white"/>
<path d="M59.7095 29.5949H6.507C5.80205 29.5949 5.22363 30.1679 5.22363 30.8795V62.3501C5.22363 64.7807 7.1999 66.7589 9.63408 66.7589H56.5824C59.0106 66.7589 60.9868 64.7807 60.9868 62.3501V30.8795C60.9868 30.1739 60.4144 29.5949 59.7095 29.5949ZM58.4261 62.3501C58.4261 63.3694 57.6007 64.1957 56.5824 64.1957H9.63408C8.61582 64.1957 7.79037 63.3694 7.79037 62.3501V32.1582H58.4321V62.3501H58.4261Z" fill="white"/>
</g>
<defs>
<clipPath id="clip0_530_1255">
<rect width="66" height="72" fill="white"/>
</clipPath>
</defs>
</svg>
