<svg width="32" height="30" viewBox="0 0 32 30" fill="none" xmlns="http://www.w3.org/2000/svg">
<g clip-path="url(#clip0_236_41)">
<path d="M29.0301 9.34809L26.5755 12.1453C26.8802 13.1585 27.0452 14.2302 27.0452 15.3393C27.0452 21.6607 21.7234 26.803 15.1776 26.803C8.63177 26.803 3.31162 21.6607 3.31162 15.3377C3.31162 9.0147 8.63514 3.87565 15.1793 3.87565C17.2821 3.87565 19.2603 4.40745 20.9742 5.33768L23.146 2.86411C20.8294 1.47689 18.0986 0.676758 15.1793 0.676758C6.80844 0.676758 0 7.25344 0 15.3377C0 23.4219 6.80844 30.0002 15.1793 30.0002C23.5501 30.0002 30.3585 23.4235 30.3585 15.3377C30.3585 13.2056 29.8837 11.176 29.0318 9.34646L29.0301 9.34809Z" fill="#EE6E03"/>
<path d="M16.8525 20.4732L9.35547 13.2314L12.9988 9.71377L16.541 13.1355L28.0703 0L31.9998 3.21841L16.8525 20.4732Z" fill="#EE6E03"/>
</g>
<defs>
<clipPath id="clip0_236_41">
<rect width="32" height="30" fill="white"/>
</clipPath>
</defs>
</svg>
