<svg width="45" height="52" viewBox="0 0 45 52" fill="none" xmlns="http://www.w3.org/2000/svg">
<path d="M22.9153 6.77824V9.47589M22.852 10.1802V12.5891M22.852 47.5741V49.9759M3.01752 29.9935H5.41934M40.4043 29.9935H42.8132M20.8023 31.3741L9.94126 38.2415M26.4371 6.30632H19.1612C17.9356 6.30632 16.9284 5.29911 16.9284 4.07354C16.9284 2.84798 17.9356 1.84076 19.1612 1.84076H26.4371C27.6626 1.84076 28.6699 2.84798 28.6699 4.07354C28.6699 5.29911 27.6697 6.30632 26.4371 6.30632ZM38.2658 6.28965L41.4893 8.6472L36.9156 14.901L33.692 12.5434L38.2658 6.28965ZM43.3414 29.9935C43.3414 41.2746 34.1964 50.4196 22.9153 50.4196C11.6343 50.4196 2.48926 41.2746 2.48926 29.9935C2.48926 18.7125 11.6343 9.56745 22.9153 9.56745C34.1964 9.56745 43.3414 18.7125 43.3414 29.9935ZM20.1543 29.3174C20.1543 27.7255 21.4433 26.4436 23.028 26.4436C24.6128 26.4436 25.9018 27.7326 25.9018 29.3174C25.9018 30.9022 24.6128 32.1911 23.028 32.1911C21.4433 32.1911 20.1543 30.9022 20.1543 29.3174Z" stroke="#016E95" stroke-width="3" stroke-miterlimit="10"/>
</svg>
