<svg width="37" height="37" viewBox="0 0 37 37" fill="none" xmlns="http://www.w3.org/2000/svg">
<g clip-path="url(#clip0_4_4)">
<path d="M18.4985 0C8.29868 0 0 8.29868 0 18.5015C0 28.7043 8.29868 37 18.5015 37C28.7043 37 37 28.7013 37 18.5015C37 8.29868 28.7013 0 18.4985 0ZM34.0341 18.5015C34.0341 27.0671 27.0671 34.0341 18.4985 34.0341C9.92994 34.0341 2.96593 27.0671 2.96593 18.4985C2.96593 9.92994 9.93291 2.96593 18.5015 2.96593C27.0701 2.96593 34.0341 9.93291 34.0341 18.4985V18.5015Z" fill="#EE6E03" fill-opacity="0.933333"/>
<path d="M24.721 7.66693L18.5015 13.8865L12.279 7.66693L7.66693 12.279L13.8865 18.4985L7.66693 24.721L12.279 29.3331L18.5015 23.1135L24.721 29.3331L29.3331 24.721L23.1135 18.4985L29.3331 12.279L24.721 7.66693Z" fill="#EE6E03" fill-opacity="0.933333"/>
</g>
<defs>
<clipPath id="clip0_4_4">
<rect width="37" height="37" fill="white"/>
</clipPath>
</defs>
</svg>
