<svg width="34" height="57" viewBox="0 0 34 57" fill="none" xmlns="http://www.w3.org/2000/svg">
<path d="M3.0955 1.12177C2.53219 6.39116 2.76037 12.0741 5.24889 16.7517C7.15272 20.324 10.5468 22.8197 13.784 25.2583C16.8501 27.5685 24.0233 31.7541 27.5172 36.4174C32.3303 42.8348 31.7955 49.9652 31.7955 56.3826M30.4906 1.12177C31.0539 6.39116 30.8258 12.0741 28.3372 16.7517C26.4334 20.324 23.0393 22.8197 19.8021 25.2583C16.736 27.5685 9.5628 31.7541 6.06889 36.4174C1.25585 42.8348 1.79063 49.9652 1.79063 56.3826M3.27376 2.36959H23.239M3.0955 8.60872H20.0303M5.41289 15.9174H17.3564M9.33463 21.8H16.2868M31.2607 53.1739H11.2955M31.439 46.9348H14.5042M29.1216 39.6261H17.1781M25.0216 33.7435H18.2477" stroke="#016E95" stroke-width="3" stroke-miterlimit="10"/>
</svg>
