<svg width="36" height="68" viewBox="0 0 36 68" fill="none" xmlns="http://www.w3.org/2000/svg">
<g clip-path="url(#clip0_30_209)">
<path d="M10.6126 9.67307L0.0463584 40.6555C-0.163533 41.2711 0.372776 41.8809 0.981461 41.7181L14.788 38.0253C15.3648 37.8712 15.8903 38.4144 15.7448 39.0149L10.5228 66.9808C10.2992 67.9024 11.5158 68.4094 11.9667 67.5826L32.7525 28.7081C33.0789 28.1092 32.5889 27.3851 31.9361 27.5022L15.5219 30.4486C14.8683 30.5658 14.3776 29.8395 14.7062 29.2405L29.4601 2.35173C29.835 1.66813 30.4625 0.561357 29.7699 0.879645L11.0353 9.19925C10.8377 9.28967 10.685 9.46111 10.6126 9.67307Z" fill="#EAA928"/>
<path d="M13.7557 8.2169L3.18942 38.013C2.97953 38.6047 3.51584 39.1914 4.12453 39.0351L17.931 35.484C18.5079 35.3357 19.0333 35.8587 18.8879 36.436L11.1631 67.0205C10.9395 67.9074 12.1561 68.395 12.607 67.5993L35.8963 26.5228C36.2227 25.947 35.7327 25.2504 35.0799 25.3632L18.6657 28.1967C18.0121 28.3095 17.5214 27.6108 17.85 27.0349L32.6032 1.17623C32.9781 0.51868 32.297 -0.235807 31.6044 0.0701834L14.1783 7.7619C13.9807 7.84942 13.828 8.01363 13.7557 8.21762V8.2169Z" fill="#FFD439"/>
</g>
<defs>
<clipPath id="clip0_30_209">
<rect width="36" height="68" fill="white"/>
</clipPath>
</defs>
</svg>
