<svg width="125" height="97" viewBox="0 0 125 97" fill="none" xmlns="http://www.w3.org/2000/svg">
<g clip-path="url(#clip0_532_1746)">
<path d="M12.0459 35.884C8.3137 35.884 5.27198 32.8352 5.27198 29.0944C5.27198 28.898 5.27198 28.6922 5.29997 28.4959C2.45418 27.6542 0.466797 25.0356 0.466797 21.9868C0.466797 20.3502 1.05462 18.7603 2.13695 17.5258C2.99535 16.5345 4.12433 15.8238 5.36528 15.459C5.29997 15.0849 5.27198 14.7015 5.27198 14.3181C5.27198 10.5772 8.3137 7.52844 12.0459 7.52844C15.7781 7.52844 18.8198 10.5772 18.8198 14.3181C18.8198 14.7857 18.4466 15.1598 17.98 15.1598C17.5135 15.1598 17.1403 14.7857 17.1403 14.3181C17.1403 11.5031 14.8543 9.21182 12.0459 9.21182C9.23742 9.21182 6.95146 11.5031 6.95146 14.3181C6.95146 14.8418 7.0261 15.3562 7.18472 15.8425C7.25936 16.0763 7.22204 16.3288 7.09141 16.5439C6.96079 16.7496 6.74619 16.8899 6.5036 16.9273C4.0217 17.292 2.14628 19.4617 2.14628 21.9868C2.14628 24.5119 3.92839 26.6067 6.3823 27.0182C6.60623 27.0556 6.8115 27.1866 6.9328 27.3736C7.06342 27.5606 7.11007 27.7944 7.06342 28.0189C6.98878 28.3743 6.95146 28.7297 6.95146 29.085C6.95146 31.9 9.23742 34.1913 12.0459 34.1913C14.8543 34.1913 17.1403 31.9 17.1403 29.085C17.1403 28.6174 17.5135 28.2433 17.98 28.2433C18.4466 28.2433 18.8198 28.6174 18.8198 29.085C18.8198 32.8259 15.7781 35.8747 12.0459 35.8747V35.884Z" fill="white" stroke="white" stroke-miterlimit="10"/>
<path d="M13.9864 28.9073C13.6132 28.9073 13.268 28.6548 13.1747 28.2714C13.0627 27.8225 13.3333 27.3642 13.7812 27.252L27.2543 23.8198C27.7022 23.7075 28.1594 23.9787 28.2713 24.4276C28.3833 24.8765 28.1127 25.3348 27.6649 25.447L14.1917 28.8792C14.1264 28.8979 14.0517 28.9073 13.9864 28.9073Z" fill="white" stroke="white" stroke-miterlimit="10"/>
<path d="M27.5721 19.7517C27.5068 19.7517 27.4508 19.7517 27.3855 19.733L14.3788 16.7964C13.931 16.6935 13.6417 16.2446 13.7444 15.7957C13.847 15.3468 14.2948 15.0569 14.7427 15.1598L27.7494 18.0964C28.1972 18.1992 28.4865 18.6481 28.3838 19.097C28.2998 19.4898 27.9546 19.7517 27.5627 19.7517H27.5721Z" fill="white" stroke="white" stroke-miterlimit="10"/>
<path d="M112.955 35.8841C109.222 35.8841 106.181 32.8353 106.181 29.0944C106.181 28.6268 106.554 28.2527 107.02 28.2527C107.487 28.2527 107.86 28.6268 107.86 29.0944C107.86 31.9094 110.146 34.2007 112.955 34.2007C115.763 34.2007 118.049 31.9094 118.049 29.0944C118.049 28.5707 117.974 28.0564 117.816 27.57C117.741 27.3362 117.778 27.0837 117.909 26.8686C118.04 26.6629 118.254 26.5226 118.497 26.4852C120.979 26.1205 122.854 23.9508 122.854 21.4257C122.854 18.9006 121.072 16.8058 118.618 16.3943C118.394 16.3569 118.189 16.2259 118.068 16.0389C117.937 15.8519 117.89 15.6181 117.937 15.3936C118.012 15.0382 118.049 14.6828 118.049 14.3275C118.049 11.5125 115.763 9.22122 112.955 9.22122C110.146 9.22122 107.86 11.5125 107.86 14.3275C107.86 14.7951 107.487 15.1692 107.02 15.1692C106.554 15.1692 106.181 14.7951 106.181 14.3275C106.181 10.5866 109.222 7.53784 112.955 7.53784C116.687 7.53784 119.728 10.5866 119.728 14.3275C119.728 14.5239 119.728 14.7296 119.7 14.926C122.546 15.7677 124.534 18.3863 124.534 21.4351C124.534 23.0717 123.946 24.6615 122.863 25.896C122.005 26.8873 120.876 27.5981 119.635 27.9628C119.7 28.3369 119.728 28.7204 119.728 29.1038C119.728 32.8446 116.687 35.8934 112.955 35.8934V35.8841Z" fill="white" stroke="white" stroke-miterlimit="10"/>
<path d="M97.5401 19.6301C97.1669 19.6301 96.8217 19.3776 96.7284 18.9941C96.6164 18.5452 96.887 18.087 97.3349 17.9748L110.808 14.5425C111.256 14.4303 111.713 14.7015 111.825 15.1504C111.937 15.5993 111.666 16.0576 111.219 16.1698L97.7454 19.602C97.6801 19.6207 97.6055 19.6301 97.5401 19.6301Z" fill="white" stroke="white" stroke-miterlimit="10"/>
<path d="M110.426 28.2901C110.36 28.2901 110.304 28.2901 110.239 28.2714L97.2323 25.3349C96.7845 25.232 96.4952 24.7831 96.5979 24.3342C96.7005 23.8853 97.1484 23.5954 97.5962 23.6983L110.603 26.6348C111.051 26.7377 111.34 27.1866 111.237 27.6355C111.153 28.0283 110.808 28.2901 110.416 28.2901H110.426Z" fill="white" stroke="white" stroke-miterlimit="10"/>
<path d="M62.8033 44.6937C56.9064 44.6937 51.3735 42.393 47.2028 38.222C43.0321 34.0416 40.7461 28.4958 40.7461 22.5853C40.7461 16.6748 43.0414 11.129 47.2028 6.94858C51.3735 2.76819 56.9064 0.476929 62.8033 0.476929C68.7001 0.476929 74.2331 2.77755 78.4038 6.94858C82.5745 11.129 84.8604 16.6748 84.8604 22.5853C84.8604 28.4958 82.5652 34.0416 78.4038 38.222C74.2331 42.4024 68.7001 44.6937 62.8033 44.6937ZM62.8033 2.15095C51.5601 2.15095 42.4162 11.316 42.4162 22.5853C42.4162 33.8546 51.5601 43.0196 62.8033 43.0196C74.0465 43.0196 83.1903 33.8546 83.1903 22.5853C83.1903 11.316 74.0371 2.15095 62.8033 2.15095Z" fill="white" stroke="white" stroke-miterlimit="10"/>
<path d="M89.0684 96.5323C88.6019 96.5323 88.2287 96.1582 88.2287 95.6906V66.7365C88.2287 57.1974 80.4937 49.4445 70.9767 49.4445H54.6297C45.1127 49.4445 37.3777 57.1974 37.3777 66.7365V95.6906C37.3777 96.1582 37.0045 96.5323 36.538 96.5323C36.0715 96.5323 35.6982 96.1582 35.6982 95.6906V66.7365C35.6982 56.2715 44.189 47.7611 54.6297 47.7611H70.9767C81.4174 47.7611 89.9081 56.2715 89.9081 66.7365V95.6906C89.9081 96.1582 89.5349 96.5323 89.0684 96.5323Z" fill="white" stroke="white" stroke-miterlimit="10"/>
<path d="M48.1454 96.5323C47.6789 96.5323 47.3057 96.1582 47.3057 95.6906V71.8895C47.3057 71.4219 47.6789 71.0479 48.1454 71.0479C48.6119 71.0479 48.9851 71.4219 48.9851 71.8895V95.6906C48.9851 96.1582 48.6119 96.5323 48.1454 96.5323Z" fill="white" stroke="white" stroke-miterlimit="10"/>
<path d="M76.202 96.5323C75.7355 96.5323 75.3623 96.1582 75.3623 95.6906V71.8895C75.3623 71.4219 75.7355 71.0479 76.202 71.0479C76.6686 71.0479 77.0418 71.4219 77.0418 71.8895V95.6906C77.0418 96.1582 76.6686 96.5323 76.202 96.5323Z" fill="white" stroke="white" stroke-miterlimit="10"/>
</g>
<defs>
<clipPath id="clip0_532_1746">
<rect width="125" height="97" fill="white"/>
</clipPath>
</defs>
</svg>
