<svg width="117" height="104" viewBox="0 0 117 104" fill="none" xmlns="http://www.w3.org/2000/svg">
<g clip-path="url(#clip0_119_63)">
<path d="M12.74 59.03C25.32 58.6 38.04 59.03 50.64 58.92C50.7 73.65 50.65 88.38 50.52 103.11C38.29 104.06 25.47 103.25 13.19 103.21C12.81 88.5 12.89 73.74 12.75 59.03H12.74Z" fill="#EE6E03" fill-opacity="0.933333"/>
<path d="M66.0901 59.12C78.7401 58.73 91.5201 59.14 104.19 59.18V103.09L66.2101 103.06C66.2901 88.41 66.2501 73.76 66.0901 59.12Z" fill="#EE6E03" fill-opacity="0.933333"/>
<path d="M59.41 10.09C60.34 8.4 61.35 6.53 62.67 5.11C65.79 1.75 70.81 -0.0200002 75.33 -2.14059e-07C79.52 0.0199998 83.5 1.68 86.33 4.8C88.36 7.04 89.71 10.01 89.53 13.07C89.32 16.63 87.74 18.79 85.23 21.17C95.71 21.17 106.19 21.21 116.67 21.32C116.78 28.66 116.77 36.01 116.64 43.35L66.25 43.54L66.04 21.21C69.35 21.3 72.61 21.27 75.92 21.09C77.5 19.88 79.18 18.68 80.5 17.18C81.69 15.83 82.84 13.89 82.53 12.01C82.09 9.37 79.82 8.12 77.69 6.91C76.92 6.84 76.15 6.75 75.38 6.82C69.56 7.32 65.28 13.03 61.59 17.02L55.5 15.62C54.73 14.56 53.94 13.53 53.12 12.51C51.04 9.96 47.92 7.38 44.48 7.18C42.58 7.07 40.8 7.75 39.48 9.12C39.34 9.27 39.2 9.43 39.07 9.6C38.94 9.77 38.82 9.94 38.71 10.11C38.6 10.29 38.5 10.47 38.4 10.66C38.31 10.85 38.22 11.04 38.15 11.24C38.08 11.44 38.01 11.64 37.96 11.84C37.91 12.04 37.86 12.25 37.83 12.45C37.8 12.66 37.78 12.86 37.76 13.07C37.75 13.28 37.75 13.49 37.76 13.7C37.85 15.69 38.78 17.51 40.24 18.86C43.2 21.59 46.9 21.71 50.68 21.61L50.64 43.35L0.0500159 43.38C-0.0599841 36.05 -0.0199841 28.72 0.160016 21.39C11.44 21.11 22.76 21.37 34.04 21.27C32.37 19.66 30.9 17.79 30.27 15.52C29.46 12.6 29.99 9.49 31.59 6.93C34.01 3.05 37.72 1.31 42 0.22C43.79 0.17 45.55 0.13 47.32 0.5C53.16 1.72 56.35 5.28 59.4 10.08L59.41 10.09Z" fill="#EE6E03" fill-opacity="0.933333"/>
</g>
<defs>
<clipPath id="clip0_119_63">
<rect width="116.76" height="103.57" fill="white"/>
</clipPath>
</defs>
</svg>
