<svg width="54" height="56" viewBox="0 0 54 56" fill="none" xmlns="http://www.w3.org/2000/svg">
<g clip-path="url(#clip0_119_30)">
<path d="M26.7575 0C26.8058 0.00266096 26.8567 0.00266096 26.9049 0.00798289C28.5771 0.170302 29.8151 3.13462 30.8147 4.33471C33.2586 7.26709 36.469 2.18731 38.9103 2.69822C40.5181 3.0335 40.3145 8.03345 41.1157 9.3666C42.0027 10.8488 46.4967 9.87484 48.1206 10.3618C50.3207 11.0217 47.3167 15.6917 47.7428 17.4586C48.2868 19.7124 52.9737 19.7736 53.9304 21.639C53.9411 23.624 51.5427 24.9678 50.5083 26.5351C48.2198 30.0104 53.7026 31.5351 53.992 33.8395C54.2332 35.7687 49.2247 36.6308 48.1394 38.1822C47.0541 39.7335 48.8361 42.5382 49.1389 44.2146C49.2166 44.6457 49.2381 45.1885 48.9192 45.5371C48.1126 46.4152 44.5994 46.0134 43.4283 46.0746C39.4569 46.2875 41.2417 51.4524 39.4489 53.0596C37.9697 54.3848 34.4672 50.7393 32.5699 50.9069C31.0612 51.04 28.6682 54.7014 27.6097 55.8457C27.5695 55.8643 27.5293 55.8856 27.4864 55.8989C25.1309 56.7743 24.1099 51.7345 22.1724 50.9867C20.7495 50.4386 18.0751 52.4982 16.7513 53.0703C16.2341 53.2938 15.4462 53.5519 14.9076 53.2379C13.967 52.6924 13.7446 49.2598 13.498 48.1981C12.5012 43.9245 7.8196 46.9261 5.59807 45.42C3.96341 44.3104 6.93796 40.1832 6.31625 38.4084C5.82317 36.9954 2.20549 36.3168 0.962075 35.484C0.522593 35.1886 0.058993 34.7442 0.024156 34.1828C-0.0401584 33.1423 1.43907 31.8704 2.10366 31.1333C2.72536 30.4468 3.57753 29.5899 3.85086 28.6932C4.52617 26.4872 0.024156 24.6725 3.80767e-05 22.4239C-0.0160405 20.9604 5.0648 19.4064 6.13403 18.3234C7.58646 16.8519 5.37297 13.4379 5.43461 11.6311C5.51768 9.20161 11.1827 10.7663 12.7638 9.54488C14.2591 8.39002 13.4873 4.29746 14.9933 2.8153C16.3252 2.21392 19.1202 4.28681 20.369 4.83763C20.9639 5.09841 21.5588 5.23146 22.1912 5.34588C24.1099 3.93291 24.7075 1.24799 26.7548 0L26.7575 0Z" fill="white" fill-opacity="0.8"/>
<path d="M33.8965 14.4278C35.1185 14.3799 36.3431 14.4757 37.5624 14.5476C35.4454 17.9536 33.0175 21.2186 30.7263 24.5102C26.9613 29.9173 23.2176 35.3323 19.2355 40.5851C18.8791 40.8272 18.5441 41.0242 18.1073 41.08C17.6383 41.1386 17.1131 40.9603 16.7781 40.625C16.5048 40.3509 16.3601 39.9704 16.3467 39.5872C16.3253 38.9992 16.5852 38.4616 16.88 37.9667C17.6866 36.6229 18.7344 35.3377 19.6455 34.0577C21.9072 30.8859 24.2306 27.7725 26.5245 24.6246C28.821 21.474 31.3373 17.2245 33.8911 14.4251L33.8965 14.4278Z" fill="#016E95"/>
<path d="M17.0836 14.5448C18.4234 14.4437 19.6267 14.4889 20.8513 15.0983C22.3573 15.846 23.4346 17.259 23.933 18.8396C24.4208 20.3909 24.2278 22.0248 23.4159 23.4351C22.5074 25.0157 21.1622 25.8752 19.4284 26.3355C18.0268 26.4606 16.7888 26.45 15.4998 25.798C15.4141 25.7528 15.3283 25.7076 15.2426 25.657C15.1568 25.6091 15.0737 25.5559 14.9933 25.5027C14.9103 25.4494 14.8299 25.3936 14.7522 25.3377C14.6718 25.2818 14.5941 25.2206 14.519 25.1594C14.444 25.0982 14.369 25.037 14.2939 24.9705C14.2216 24.9066 14.1492 24.8401 14.0795 24.7709C14.0099 24.7017 13.9429 24.6325 13.8759 24.5607C13.8089 24.4888 13.7446 24.417 13.6829 24.3398C13.6213 24.2653 13.5597 24.1881 13.5007 24.111C13.4418 24.0338 13.3855 23.954 13.3292 23.8741C13.2756 23.7943 13.222 23.7118 13.1711 23.6293C13.1202 23.5469 13.0719 23.4617 13.0264 23.3765C12.9808 23.2914 12.9353 23.2036 12.8951 23.1158C12.8522 23.028 12.812 22.9402 12.7745 22.8497C12.737 22.7592 12.7021 22.6687 12.6673 22.5783C12.6351 22.4878 12.603 22.3947 12.5762 22.3015C12.0563 20.6517 12.2921 18.8928 13.1389 17.3894C14.0393 15.7928 15.3739 15.0344 17.0836 14.5421V14.5448Z" fill="#016E95"/>
<path d="M17.4105 17.73C17.8741 17.6927 18.3833 17.6581 18.8361 17.7779C19.5945 17.9748 20.2671 18.5309 20.6289 19.2175C20.6718 19.2973 20.712 19.3798 20.7468 19.4649C20.7817 19.5501 20.8138 19.6352 20.8406 19.723C20.8674 19.8109 20.8888 19.8987 20.9076 19.9891C20.9264 20.0796 20.9371 20.1701 20.9451 20.2606C20.9532 20.351 20.9558 20.4442 20.9558 20.5346C20.9558 20.6251 20.9478 20.7182 20.9398 20.8087C20.929 20.8992 20.9156 20.9897 20.8942 21.0801C20.8754 21.1706 20.8513 21.2584 20.8219 21.3462C20.5217 22.2377 19.8545 22.7166 19.0452 23.1344C18.3404 23.3047 17.6678 23.2914 17.0166 22.9401C16.076 22.4372 15.7223 21.5272 15.4221 20.5772C15.5106 20.2153 15.6017 19.8534 15.7115 19.4995C15.9983 18.5788 16.5878 18.169 17.4105 17.7326V17.73Z" fill="white"/>
<path d="M34.2205 28.7917C35.5872 28.6932 37.0638 29.1216 38.1839 29.9013C38.2724 29.9625 38.3554 30.0237 38.4412 30.0875C38.5243 30.1514 38.6073 30.2179 38.6877 30.2871C38.7681 30.3563 38.8458 30.4255 38.9235 30.5C39.0013 30.5718 39.0763 30.649 39.1486 30.7262C39.221 30.8033 39.2933 30.8805 39.3603 30.963C39.43 31.0428 39.4943 31.1253 39.5586 31.2105C39.623 31.2956 39.6846 31.3808 39.7462 31.4686C39.8052 31.5564 39.8641 31.6442 39.9177 31.7347C39.974 31.8252 40.0249 31.9156 40.0758 32.0088C40.1268 32.1019 40.175 32.195 40.2205 32.2908C40.2661 32.3866 40.309 32.4824 40.3492 32.5809C40.3894 32.6793 40.4269 32.7778 40.4617 32.8762C40.4966 32.9747 40.5287 33.0758 40.5582 33.1769C40.5877 33.278 40.6145 33.3792 40.6413 33.4829C40.6654 33.5867 40.6868 33.6878 40.7056 33.7916C40.7243 33.8954 40.7404 33.9992 40.7538 34.1029C40.9843 35.766 40.5689 37.5356 39.5077 38.8554C38.3983 40.2365 36.844 40.9762 35.1075 41.1944C33.6766 41.245 32.2804 40.9523 31.0799 40.1487C29.6596 39.1987 28.7431 37.7192 28.4617 36.0481C28.443 35.947 28.4296 35.8432 28.4162 35.7394C28.4028 35.6357 28.3947 35.5319 28.3867 35.4281C28.3787 35.3243 28.376 35.2205 28.3733 35.1168C28.3733 35.013 28.3733 34.9092 28.376 34.8054C28.3787 34.7017 28.3867 34.5979 28.3947 34.4941C28.4028 34.3903 28.4162 34.2865 28.4296 34.1854C28.443 34.0817 28.4617 33.9805 28.4805 33.8768C28.4992 33.7756 28.5234 33.6745 28.5475 33.5734C28.5716 33.4723 28.5984 33.3712 28.6279 33.2727C28.6573 33.1743 28.6895 33.0731 28.7243 32.9774C28.7592 32.8789 28.7967 32.7831 28.8369 32.6873C28.8771 32.5915 28.92 32.4957 28.9628 32.4026C29.0084 32.3095 29.054 32.2163 29.1049 32.1232C29.1531 32.0327 29.2067 31.9422 29.2603 31.8518C29.3139 31.764 29.3702 31.6761 29.4291 31.5883C29.4881 31.5032 29.547 31.418 29.6113 31.3355C30.7744 29.7682 32.3367 29.0711 34.2205 28.7943V28.7917Z" fill="#016E95"/>
<path d="M33.8723 32.3707C34.2769 32.3467 34.7191 32.3121 35.1184 32.3973C35.8526 32.5543 36.5655 33.0519 36.9379 33.7012C36.9808 33.7757 37.0183 33.8502 37.0532 33.9273C37.088 34.0045 37.1175 34.0843 37.1443 34.1642C37.1711 34.244 37.1925 34.3265 37.2113 34.409C37.23 34.4915 37.2434 34.574 37.2515 34.6591C37.2595 34.7443 37.2649 34.8267 37.2649 34.9119C37.2649 34.9971 37.2622 35.0795 37.2542 35.1647C37.2461 35.2498 37.2327 35.3323 37.2166 35.4148C37.2006 35.4973 37.1791 35.5798 37.1523 35.6596C36.8549 36.6096 36.193 37.0646 35.3328 37.4824C34.9308 37.525 34.5181 37.5808 34.1188 37.493C33.4435 37.3467 32.787 36.9342 32.4145 36.3515C32.034 35.7607 31.9348 35.0157 32.1117 34.3425C32.3716 33.3632 33.0121 32.8363 33.8723 32.3707Z" fill="white"/>
</g>
<defs>
<clipPath id="clip0_119_30">
<rect width="54" height="56" fill="white"/>
</clipPath>
</defs>
</svg>
