<svg width="119" height="225" viewBox="0 0 119 225" fill="none" xmlns="http://www.w3.org/2000/svg">
<g clip-path="url(#clip0_595_8)">
<path d="M35.0805 32.0064L0.15324 134.522C-0.540567 136.559 1.23223 138.576 3.24427 138.038L48.8825 125.819C50.7893 125.309 52.5262 127.107 52.0453 129.093L34.7838 221.627C34.0446 224.677 38.0662 226.355 39.5567 223.619L108.265 94.99C109.344 93.0082 107.725 90.6122 105.567 91L51.3084 100.749C49.148 101.137 47.526 98.7335 48.6121 96.7517L97.382 7.78136C98.6213 5.51947 100.696 1.85735 98.406 2.91051L36.4777 30.4386C35.8245 30.7378 35.3197 31.3051 35.0805 32.0064Z" fill="#EAA928"/>
<path d="M45.4711 27.1883L10.5439 125.778C9.85006 127.736 11.6229 129.677 13.6349 129.16L59.2731 117.41C61.1799 116.92 62.9168 118.65 62.4359 120.56L36.9014 221.759C36.1621 224.694 40.1838 226.307 41.6743 223.674L118.658 87.7592C119.737 85.854 118.118 83.549 115.96 83.9224L61.7014 93.2979C59.5411 93.6713 57.919 91.3591 59.0051 89.4538L107.773 3.89195C109.012 1.71622 106.761 -0.780243 104.471 0.232224L46.8683 25.6827C46.2152 25.9724 45.7104 26.5157 45.4711 27.1907V27.1883Z" fill="#FFD439"/>
</g>
<defs>
<clipPath id="clip0_595_8">
<rect width="119" height="225" fill="white"/>
</clipPath>
</defs>
</svg>
