<svg width="92" height="96" viewBox="0 0 92 96" fill="none" xmlns="http://www.w3.org/2000/svg">
<g clip-path="url(#clip0_532_1761)">
<path d="M46 95.952C39.7907 95.952 33.7672 94.6897 28.0938 92.1997C22.6159 89.7961 17.6966 86.3544 13.4732 81.972C9.2497 77.5897 5.93273 72.4854 3.61625 66.8014C1.21658 60.9146 0 54.6634 0 48.2216C0 41.7798 1.21658 35.5275 3.61625 29.6418C5.93381 23.9579 9.2497 18.8535 13.4732 14.4712C17.6966 10.0889 22.6159 6.64712 28.0938 4.2435C33.7661 1.75356 39.7907 0.491211 46 0.491211C52.2093 0.491211 58.2328 1.75356 63.9062 4.2435C69.3841 6.64712 74.3034 10.0889 78.5268 14.4712C82.7503 18.8535 86.0673 23.9579 88.3838 29.6418C90.7834 35.5275 92 41.7787 92 48.2216C92 54.6645 90.7834 60.9157 88.3838 66.8014C86.0673 72.4854 82.7503 77.5897 78.5268 81.972C74.3034 86.3544 69.3841 89.7961 63.9062 92.1997C58.2339 94.6897 52.2093 95.952 46 95.952ZM46 5.35898C40.4227 5.35898 35.0129 6.49241 29.9219 8.72674C25.0026 10.886 20.5847 13.9768 16.7901 17.9141C12.9956 21.8513 10.0168 26.4355 7.93588 31.5398C5.78255 36.8224 4.69022 42.4357 4.69022 48.2227C4.69022 54.0098 5.78255 59.6231 7.93588 64.9057C10.0157 70.01 12.9956 74.5941 16.7901 78.5314C20.5847 82.4687 25.0026 85.5595 29.9219 87.7187C35.0129 89.9531 40.4227 91.0865 46 91.0865C51.5773 91.0865 56.9871 89.9531 62.0781 87.7187C66.9974 85.5595 71.4153 82.4687 75.2099 78.5314C79.0044 74.5941 81.9832 70.01 84.0641 64.9057C86.2174 59.6231 87.3098 54.0098 87.3098 48.2227C87.3098 42.4357 86.2174 36.8224 84.0641 31.5398C81.9843 26.4355 79.0044 21.8513 75.2099 17.9141C71.4153 13.9768 66.9974 10.886 62.0781 8.72674C56.9871 6.49241 51.5773 5.35898 46 5.35898Z" fill="white"/>
<path d="M66.343 56.9067C66.1225 56.9067 65.8978 56.8742 65.6763 56.8058L45.3348 50.5546C44.5396 50.3102 43.928 49.6476 43.726 48.8135L36.4276 18.6215C36.1121 17.3176 36.8759 15.9959 38.1314 15.6685C39.388 15.3412 40.6618 16.1338 40.9773 17.4365L47.9505 46.2821L67.0096 52.1387C68.2521 52.5199 68.9598 53.8741 68.5924 55.1634C68.291 56.2217 67.3564 56.9067 66.344 56.9067H66.343Z" fill="white"/>
<path d="M46.0004 16.7638C45.3532 16.7638 44.8281 16.219 44.8281 15.5474V11.72C44.8281 11.0485 45.3532 10.5037 46.0004 10.5037C46.6476 10.5037 47.1727 11.0485 47.1727 11.72V15.5474C47.1727 16.219 46.6476 16.7638 46.0004 16.7638Z" fill="white"/>
<path d="M14.5094 49.438H10.8207C10.1735 49.438 9.64844 48.8932 9.64844 48.2216C9.64844 47.5501 10.1735 47.0052 10.8207 47.0052H14.5094C15.1566 47.0052 15.6816 47.5501 15.6816 48.2216C15.6816 48.8932 15.1566 49.438 14.5094 49.438Z" fill="white"/>
<path d="M46.0004 85.9407C45.3532 85.9407 44.8281 85.3959 44.8281 84.7243V80.8969C44.8281 80.2254 45.3532 79.6805 46.0004 79.6805C46.6476 79.6805 47.1727 80.2254 47.1727 80.8969V84.7243C47.1727 85.3959 46.6476 85.9407 46.0004 85.9407Z" fill="white"/>
<path d="M81.1793 49.438H77.4906C76.8435 49.438 76.3184 48.8932 76.3184 48.2216C76.3184 47.5501 76.8435 47.0052 77.4906 47.0052H81.1793C81.8265 47.0052 82.3516 47.5501 82.3516 48.2216C82.3516 48.8932 81.8265 49.438 81.1793 49.438Z" fill="white"/>
</g>
<defs>
<clipPath id="clip0_532_1761">
<rect width="92" height="95.4608" fill="white" transform="translate(0 0.491211)"/>
</clipPath>
</defs>
</svg>
