<svg width="71" height="71" viewBox="0 0 71 71" fill="none" xmlns="http://www.w3.org/2000/svg">
<g clip-path="url(#clip0_530_1250)">
<path fill-rule="evenodd" clip-rule="evenodd" d="M35.5041 0C45.2614 0 54.2179 3.92562 60.6732 10.3471C67.0872 16.5041 71.0082 25.7355 71.0082 35.2314C71.0082 45.2645 67.0872 53.9587 60.6732 60.3884C54.2179 67.0744 45.2614 71 35.5041 71C25.7469 71 16.7491 67.0744 10.3351 60.3884C3.92106 53.9587 0 45.2645 0 35.2314C0 25.7355 3.92106 16.5041 10.3351 10.3471C16.7491 3.92562 25.7056 0 35.5041 0ZM31.0052 36.3471C29.6267 37.1983 29.0488 38.314 29.0488 39.6942C29.0488 42.1901 30.7411 43.8843 32.9699 43.8843C34.3484 43.8843 35.5041 43.3471 36.3544 42.1901H54.7957C55.3323 42.1901 55.9101 41.6529 55.9101 40.8099C55.9101 39.9669 55.3323 39.4297 54.7957 39.4297H36.8909C36.8909 37.7355 35.5124 36.0413 33.5477 35.7769V17.0496C33.5477 16.5124 32.9699 15.9339 32.1196 15.9339C31.5831 15.9339 31.0052 16.5124 31.0052 17.0496V36.3636V36.3471ZM58.6672 12.3058C52.5174 6.42149 44.4606 2.49587 35.5041 2.49587C26.5476 2.49587 18.4413 6.42149 12.2915 12.3058C6.41402 18.1488 2.76538 26.2645 2.76538 35.2314C2.76538 44.1983 6.42228 52.5372 12.2997 58.4215C18.4496 64.5785 26.5559 67.9174 35.5041 67.9174C44.4524 67.9174 52.5174 64.5702 58.6672 58.4215C64.5447 52.5372 68.2016 44.4628 68.2016 35.2314C68.2016 26 64.553 18.1488 58.6672 12.3058Z" fill="white"/>
</g>
<defs>
<clipPath id="clip0_530_1250">
<rect width="71" height="71" fill="white"/>
</clipPath>
</defs>
</svg>
