<svg width="69" height="69" viewBox="0 0 69 69" fill="none" xmlns="http://www.w3.org/2000/svg">
<g clip-path="url(#clip0_30_327)">
<path d="M64.6838 17.8555L58.7569 23.7827C63.1407 33.6934 61.068 45.4498 53.258 53.2601C42.9137 63.6048 26.083 63.6048 15.7381 53.2601C5.39448 42.916 5.39448 26.0839 15.7381 15.7398C25.1265 6.35111 39.8587 5.48381 50.234 13.1374L36.7701 26.6018L30.1327 19.9641H18.8825L31.1444 32.2266L19.4802 43.8913H30.7305L36.7695 37.852L42.8086 43.8913H54.0583L42.3941 32.2266L61.6933 12.9266L58.8808 10.1139C45.4351 -3.33239 23.5581 -3.33239 10.1118 10.1139C-3.33445 23.5602 -3.33386 45.4386 10.1118 58.8849C23.5581 72.3317 45.4356 72.3317 58.8819 58.8849C69.7552 48.0111 72.0769 31.2495 64.6826 17.8549L64.6838 17.8555Z" fill="white"/>
</g>
<defs>
<clipPath id="clip0_30_327">
<rect width="69" height="69" fill="white"/>
</clipPath>
</defs>
</svg>
