<svg width="88" height="81" viewBox="0 0 88 81" fill="none" xmlns="http://www.w3.org/2000/svg">
<g clip-path="url(#clip0_533_1801)">
<path d="M43.9736 79.924C43.9736 79.924 43.5548 79.8154 43.3977 79.5983C36.9063 69.0685 28.3733 61.9038 20.835 55.5533C9.99854 46.4347 0.62793 38.5645 0.62793 24.1809C0.62793 11.5885 10.522 1.33008 22.6672 1.33008C32.9278 1.33008 41.5655 8.65755 44.0259 18.5361C46.434 8.65755 55.0717 1.33008 65.3323 1.33008C77.4774 1.33008 87.3192 11.5885 87.3192 24.1266C87.3192 38.5645 77.9486 46.3804 67.1122 55.4991C59.5738 61.8495 50.9884 69.0142 44.5494 79.544C44.4447 79.7611 44.2353 79.8697 43.9736 79.8697V79.924ZM22.6672 2.74129C11.2549 2.74129 1.98902 12.3484 1.98902 24.1809C1.98902 37.9131 11.0979 45.6206 21.6725 54.4678C29.1062 60.7097 37.4822 67.7115 43.9736 77.97C50.4649 67.7658 58.8409 60.7097 66.2746 54.4678C76.8492 45.5663 85.9581 37.9131 85.9581 24.1809C85.9581 12.3484 76.6922 2.74129 65.2799 2.74129C53.8677 2.74129 44.6018 12.3484 44.6018 24.1809C44.6018 24.5609 44.2877 24.8865 43.9212 24.8865C43.5548 24.8865 43.2407 24.5609 43.2407 24.1809C43.2407 12.3484 33.9748 2.74129 22.5625 2.74129H22.6672Z" fill="white" stroke="white" stroke-width="0.25" stroke-miterlimit="10"/>
<path d="M43.9739 68.3086C43.6598 68.3086 43.4504 68.0915 43.3457 67.8201L32.3523 30.0429L25.9656 42.1468C25.9656 42.1468 25.5992 42.5267 25.3898 42.5267H14.9198C14.5534 42.5267 14.2393 42.2011 14.2393 41.8211V36.6105C14.2393 36.2305 14.5534 35.9049 14.9198 35.9049H22.0394L33.2946 14.5738C33.2946 14.5738 33.7134 14.1938 33.9751 14.1938C34.2369 14.1938 34.4986 14.411 34.551 14.6823L43.8692 50.1256L52.4546 25.375C52.4546 25.375 52.7687 24.9408 53.0305 24.9408C53.2922 24.9408 53.554 25.1036 53.6586 25.3207L59.103 37.099H68.2119C68.8401 36.719 69.5206 36.5019 70.2535 36.5019C72.4522 36.5019 74.2321 38.3474 74.2321 40.627C74.2321 42.9067 72.4522 44.7521 70.2535 44.7521C69.2589 44.7521 68.3166 44.3722 67.5837 43.6666H55.5432C55.5432 43.6666 55.0721 43.5037 54.915 43.2866L53.8157 40.8984L44.6021 67.7658C44.4974 68.0372 44.2357 68.2543 43.9739 68.2543V68.3086ZM32.5093 27.6004C32.5093 27.6004 32.5093 27.6004 32.5617 27.6004C32.8234 27.6004 33.0328 27.8175 33.1375 28.0889L44.0263 65.3776L53.0828 38.9444C53.0828 38.9444 53.3969 38.5102 53.6586 38.4559C53.9204 38.4559 54.1821 38.6187 54.2868 38.8359L55.9097 42.3096H67.7931C67.7931 42.3096 68.1595 42.3639 68.2642 42.5267C68.7877 43.0695 69.4683 43.3952 70.2012 43.3952C71.667 43.3952 72.8187 42.1468 72.8187 40.6813C72.8187 39.2158 71.6146 37.9674 70.2012 37.9674C69.6777 37.9674 69.1542 38.1302 68.7354 38.4559C68.6307 38.5102 68.4736 38.5645 68.3689 38.5645H58.6319C58.6319 38.5645 58.1607 38.4016 58.0037 38.1845L53.0828 27.5461L44.3404 52.7852C44.2357 53.0566 44.0263 53.2737 43.6598 53.2194C43.3457 53.2194 43.1363 53.0023 43.0316 52.7309L33.6087 16.7992L22.9293 36.9904C22.9293 36.9904 22.5629 37.3704 22.3535 37.3704H15.4957V41.1698H24.9186L31.8811 27.9803C31.8811 27.9803 32.2476 27.6004 32.457 27.6004H32.5093Z" fill="white" stroke="white" stroke-width="0.25" stroke-miterlimit="10"/>
</g>
<defs>
<clipPath id="clip0_533_1801">
<rect width="88" height="79.8966" fill="white" transform="translate(0 0.678711)"/>
</clipPath>
</defs>
</svg>
