<svg width="67" height="97" viewBox="0 0 67 97" fill="none" xmlns="http://www.w3.org/2000/svg">
<path d="M22.1665 96.2296C19.6718 95.2649 20.2298 93.6681 20.6775 92.0777C22.5265 85.5208 24.4016 78.9703 26.1922 72.3938C27.133 68.9394 27.9472 65.4523 28.7615 61.9653C28.9886 60.9974 29.008 59.9806 29.1735 58.5793C27.6196 58.4685 26.4031 58.3055 25.1866 58.3055C18.5137 58.2958 11.8376 58.3381 5.16468 58.3284C3.93845 58.3284 2.71222 58.1752 0.869629 58.0481C1.35947 56.5946 1.46977 55.4507 2.05368 54.649C14.6631 37.2855 27.3244 19.9579 39.9857 2.6302C40.933 1.33315 41.8543 -0.169211 44.2743 1.1148C44.0537 14.1537 43.8298 27.3849 43.6028 40.9811C45.0885 41.1865 46.2791 41.4765 47.4729 41.4895C52.3064 41.5417 57.1367 41.4798 61.9703 41.5254C63.3035 41.5384 64.6368 41.7698 65.7852 41.8839C67.0796 44.2205 65.7333 45.5208 64.653 46.8211C58.5414 54.1895 52.4589 61.584 46.2466 68.8644C39.1358 77.2007 31.9082 85.436 24.713 93.6974C23.9085 94.6229 22.9742 95.4344 22.1665 96.2296ZM40.1674 45.208C39.3596 33.2933 40.6702 21.9393 39.8105 10.4679C38.7984 11.0024 38.0685 11.6346 37.4846 12.3776C28.0575 24.3802 9.03801 51.5009 8.27242 54.2286C9.5538 54.3362 10.7638 54.5122 11.9738 54.5219C17.839 54.5676 23.7041 54.5513 29.5692 54.5936C31.029 54.6034 32.6186 54.359 33.9778 56.474C32.969 60.5803 31.8141 65.1297 30.7371 69.6955C29.6439 74.3264 27.837 78.7976 27.1687 83.8815C31.0226 81.7241 58.2364 49.5097 59.5924 45.5013C53.2017 45.4035 46.9408 45.309 40.1674 45.2047V45.208Z" fill="white"/>
</svg>
