<svg width="75" height="82" viewBox="0 0 75 82" fill="none" xmlns="http://www.w3.org/2000/svg">
<g clip-path="url(#clip0_533_1797)">
<path d="M25.7548 81.0839C24.878 81.0839 24.0012 81.0107 23.161 80.8275C8.69438 77.6032 0.913086 60.1992 0.913086 45.4334C0.913086 35.2841 5.26038 26.7104 12.5668 22.5335C19.1425 18.7595 27.1795 19.0893 35.2531 23.4128C34.3763 17.1108 36.1298 10.9553 40.2579 5.86232C40.5867 5.45928 41.0616 5.2028 41.5731 5.12952C42.0845 5.09288 42.596 5.23944 43.0344 5.5692C43.8746 6.26536 43.9842 7.51111 43.3266 8.35383C39.6369 12.8972 38.2487 18.1733 39.2716 23.6693C47.5278 19.0527 55.7109 18.6496 62.4328 22.4968C69.7392 26.6738 74.0865 35.2475 74.0865 45.3967C74.0865 60.1626 66.2687 77.5665 51.8386 80.7908C48.9891 81.4137 45.8839 80.7908 42.596 80.1679C40.9886 79.8382 39.3081 79.5451 37.5181 79.3252C35.728 79.5451 34.0475 79.8748 32.4401 80.1679C30.1386 80.6076 27.9102 81.0473 25.7913 81.0473L25.7548 81.0839ZM22.4669 21.2877C19.179 21.2877 16.0373 22.0938 13.2243 23.7059C6.35634 27.663 2.26477 35.7604 2.26477 45.4334C2.26477 59.8695 10.1922 76.5406 23.4533 79.5084C26.0105 80.058 28.86 79.5084 32.1479 78.8856C33.8283 78.5558 35.5453 78.226 37.4085 78.0062C37.445 78.0062 37.5181 78.0062 37.5546 78.0062C39.4177 78.226 41.1347 78.5558 42.8152 78.8856C46.1031 79.5084 48.9525 80.058 51.5098 79.5084C64.7709 76.5772 72.6983 59.8695 72.6983 45.4334C72.6983 35.7604 68.6067 27.6264 61.7387 23.7059C55.236 19.9687 47.199 20.5549 39.1255 25.3547C38.9428 25.4646 38.7236 25.4646 38.5044 25.3914C38.3218 25.3181 38.1756 25.1349 38.1026 24.915C36.6413 18.6863 38.1026 12.6407 42.2307 7.51111C42.4499 7.25463 42.4133 6.85159 42.1576 6.63175C42.048 6.52183 41.8653 6.48519 41.7192 6.48519C41.5731 6.48519 41.427 6.59511 41.3174 6.70503C37.0797 11.9079 35.5453 18.1 36.8605 24.5486C36.897 24.8051 36.8239 25.0982 36.6048 25.2448C36.3856 25.3914 36.0933 25.428 35.8741 25.2448C31.3076 22.5701 26.7777 21.2144 22.54 21.2144L22.4669 21.2877Z" fill="white" stroke="white" stroke-width="0.5" stroke-miterlimit="10"/>
<path d="M33.4632 13.9231C31.3078 13.9231 28.6045 13.5201 26.4856 11.8713C22.321 8.68365 22.0287 2.23503 21.9922 1.97855C21.9922 1.64879 22.2114 1.35567 22.5036 1.28239C22.7594 1.20912 29.0063 -0.219839 33.1709 2.93119C37.3356 6.11886 37.6278 12.5675 37.6644 12.8239C37.6644 13.1537 37.4452 13.4468 37.1529 13.5201C37.0433 13.5201 35.509 13.9231 33.4997 13.9231H33.4632ZM27.3258 10.8088C30.2849 13.0804 34.7053 12.6041 36.2762 12.3476C36.0935 10.7721 35.3629 6.3387 32.3672 4.06702C29.4082 1.79535 24.9878 2.27167 23.4535 2.52815C23.6361 4.10366 24.3668 8.53709 27.3258 10.8088Z" fill="white" stroke="white" stroke-width="0.5" stroke-miterlimit="10"/>
</g>
<defs>
<clipPath id="clip0_533_1797">
<rect width="75" height="82" fill="white"/>
</clipPath>
</defs>
</svg>
